<svg xmlns="http://www.w3.org/2000/svg" width="32" height="32" viewBox="0 0 32 32">
  <defs>
    <linearGradient id="brainGradient" x1="0%" y1="0%" x2="100%" y2="100%">
      <stop offset="0%" style="stop-color:#667eea;stop-opacity:1" />
      <stop offset="100%" style="stop-color:#764ba2;stop-opacity:1" />
    </linearGradient>
  </defs>
  <rect width="32" height="32" rx="6" fill="url(#brainGradient)"/>
  <path d="M8 12c0-2.2 1.8-4 4-4s4 1.8 4 4c0 1.1-.9 2-2 2h-4c-1.1 0-2-.9-2-2z" fill="white" opacity="0.9"/>
  <path d="M20 12c0-2.2 1.8-4 4-4s4 1.8 4 4c0 1.1-.9 2-2 2h-4c-1.1 0-2-.9-2-2z" fill="white" opacity="0.9"/>
  <path d="M12 16c0-1.1.9-2 2-2h4c1.1 0 2 .9 2 2v4c0 1.1-.9 2-2 2h-4c-1.1 0-2-.9-2-2v-4z" fill="white" opacity="0.7"/>
  <circle cx="16" cy="20" r="2" fill="white" opacity="0.9"/>
</svg>
