<svg xmlns="http://www.w3.org/2000/svg" width="32" height="32" viewBox="0 0 32 32">
  <rect width="32" height="32" rx="6" fill="#667eea"/>
  <path d="M8 12c0-2.2 1.8-4 4-4s4 1.8 4 4c0 1.1-.9 2-2 2h-4c-1.1 0-2-.9-2-2z" fill="white" opacity="0.9"/>
  <path d="M20 12c0-2.2 1.8-4 4-4s4 1.8 4 4c0 1.1-.9 2-2 2h-4c-1.1 0-2-.9-2-2z" fill="white" opacity="0.9"/>
  <path d="M12 16c0-1.1.9-2 2-2h4c1.1 0 2 .9 2 2v4c0 1.1-.9 2-2 2h-4c-1.1 0-2-.9-2-2v-4z" fill="white" opacity="0.7"/>
  <circle cx="16" cy="20" r="2" fill="white" opacity="0.9"/>
</svg>
